<mxfile host="app.diagrams.net" agent="Mozilla/5.0 (Macintosh; Intel Mac OS X 10_15_7) AppleWebKit/537.36 (KHTML, like Gecko) Chrome/134.0.0.0 Safari/537.36" version="26.2.8">
  <diagram name="Page-1" id="2YBvvXClWsGukQMizWep">
    <mxGraphModel dx="1138" dy="845" grid="1" gridSize="10" guides="1" tooltips="1" connect="1" arrows="1" fold="1" page="1" pageScale="1" pageWidth="850" pageHeight="1100" math="0" shadow="0">
      <root>
        <mxCell id="0" />
        <mxCell id="1" parent="0" />
        <mxCell id="CweIAEKfsdeoZPZ042ms-26" value="" style="group" vertex="1" connectable="0" parent="1">
          <mxGeometry x="520" y="24" width="270" height="416" as="geometry" />
        </mxCell>
        <mxCell id="CweIAEKfsdeoZPZ042ms-24" value="" style="rounded=0;whiteSpace=wrap;html=1;" vertex="1" parent="CweIAEKfsdeoZPZ042ms-26">
          <mxGeometry x="30" width="240" height="386.28571428571433" as="geometry" />
        </mxCell>
        <mxCell id="CweIAEKfsdeoZPZ042ms-25" value="Step Functions" style="text;html=1;align=center;verticalAlign=middle;resizable=0;points=[];autosize=1;strokeColor=none;fillColor=none;" vertex="1" parent="CweIAEKfsdeoZPZ042ms-26">
          <mxGeometry x="180" y="386.28571428571433" width="100" height="30" as="geometry" />
        </mxCell>
        <mxCell id="CweIAEKfsdeoZPZ042ms-18" value="" style="group" vertex="1" connectable="0" parent="CweIAEKfsdeoZPZ042ms-26">
          <mxGeometry x="110" y="85.18095238095238" width="80" height="92.11428571428571" as="geometry" />
        </mxCell>
        <mxCell id="CweIAEKfsdeoZPZ042ms-11" value="Get Rules" style="text;html=1;align=center;verticalAlign=middle;resizable=0;points=[];autosize=1;strokeColor=none;fillColor=none;container=1;" vertex="1" parent="CweIAEKfsdeoZPZ042ms-18">
          <mxGeometry y="62.400000000000006" width="80" height="30" as="geometry" />
        </mxCell>
        <mxCell id="CweIAEKfsdeoZPZ042ms-9" value="" style="outlineConnect=0;dashed=0;verticalLabelPosition=bottom;verticalAlign=top;align=center;html=1;shape=mxgraph.aws3.lambda_function;fillColor=#5294CF;gradientColor=none;" vertex="1" parent="CweIAEKfsdeoZPZ042ms-18">
          <mxGeometry x="10" width="60" height="62.400000000000006" as="geometry" />
        </mxCell>
        <mxCell id="CweIAEKfsdeoZPZ042ms-14" value="" style="group" vertex="1" connectable="0" parent="CweIAEKfsdeoZPZ042ms-26">
          <mxGeometry x="100" y="204.03809523809525" width="100" height="92.11428571428571" as="geometry" />
        </mxCell>
        <mxCell id="CweIAEKfsdeoZPZ042ms-10" value="" style="outlineConnect=0;dashed=0;verticalLabelPosition=bottom;verticalAlign=top;align=center;html=1;shape=mxgraph.aws3.lambda_function;fillColor=#5294CF;gradientColor=none;" vertex="1" parent="CweIAEKfsdeoZPZ042ms-14">
          <mxGeometry x="20" width="60" height="62.400000000000006" as="geometry" />
        </mxCell>
        <mxCell id="CweIAEKfsdeoZPZ042ms-13" value="Update Status" style="text;html=1;align=center;verticalAlign=middle;resizable=0;points=[];autosize=1;strokeColor=none;fillColor=none;" vertex="1" parent="CweIAEKfsdeoZPZ042ms-14">
          <mxGeometry y="62.400000000000006" width="100" height="30" as="geometry" />
        </mxCell>
        <mxCell id="CweIAEKfsdeoZPZ042ms-3" value="" style="group" vertex="1" connectable="0" parent="1">
          <mxGeometry x="140" y="190" width="140" height="80" as="geometry" />
        </mxCell>
        <mxCell id="CweIAEKfsdeoZPZ042ms-1" value="" style="points=[];aspect=fixed;html=1;align=center;shadow=0;dashed=0;fillColor=#FF6A00;strokeColor=none;shape=mxgraph.alibaba_cloud.domain_and_website;" vertex="1" parent="CweIAEKfsdeoZPZ042ms-3">
          <mxGeometry x="44.349999999999994" width="51.3" height="41.4" as="geometry" />
        </mxCell>
        <mxCell id="CweIAEKfsdeoZPZ042ms-2" value="Human Approval Page" style="text;html=1;align=center;verticalAlign=middle;resizable=0;points=[];autosize=1;strokeColor=none;fillColor=none;" vertex="1" parent="CweIAEKfsdeoZPZ042ms-3">
          <mxGeometry y="50" width="140" height="30" as="geometry" />
        </mxCell>
        <mxCell id="CweIAEKfsdeoZPZ042ms-8" value="" style="endArrow=none;html=1;rounded=0;entryX=0;entryY=0.5;entryDx=0;entryDy=0;entryPerimeter=0;" edge="1" parent="1" target="CweIAEKfsdeoZPZ042ms-4">
          <mxGeometry width="50" height="50" relative="1" as="geometry">
            <mxPoint x="180" y="219" as="sourcePoint" />
            <mxPoint x="240" y="320" as="targetPoint" />
          </mxGeometry>
        </mxCell>
        <mxCell id="CweIAEKfsdeoZPZ042ms-23" value="" style="group" vertex="1" connectable="0" parent="1">
          <mxGeometry x="960" y="182" width="70" height="104" as="geometry" />
        </mxCell>
        <mxCell id="CweIAEKfsdeoZPZ042ms-21" value="" style="image;html=1;image=img/lib/clip_art/computers/Database_128x128.png" vertex="1" parent="CweIAEKfsdeoZPZ042ms-23">
          <mxGeometry x="5" width="60" height="70" as="geometry" />
        </mxCell>
        <mxCell id="CweIAEKfsdeoZPZ042ms-22" value="Rules DB" style="text;html=1;align=center;verticalAlign=middle;resizable=0;points=[];autosize=1;strokeColor=none;fillColor=none;" vertex="1" parent="CweIAEKfsdeoZPZ042ms-23">
          <mxGeometry y="74" width="70" height="30" as="geometry" />
        </mxCell>
        <mxCell id="CweIAEKfsdeoZPZ042ms-27" value="" style="endArrow=classic;html=1;rounded=0;entryX=0;entryY=0.5;entryDx=0;entryDy=0;exitX=1;exitY=0.5;exitDx=0;exitDy=0;" edge="1" parent="1" source="CweIAEKfsdeoZPZ042ms-24" target="CweIAEKfsdeoZPZ042ms-21">
          <mxGeometry width="50" height="50" relative="1" as="geometry">
            <mxPoint x="770" y="230" as="sourcePoint" />
            <mxPoint x="820" y="180" as="targetPoint" />
          </mxGeometry>
        </mxCell>
        <mxCell id="CweIAEKfsdeoZPZ042ms-29" value="" style="group" vertex="1" connectable="0" parent="1">
          <mxGeometry x="350" y="180" width="90" height="110" as="geometry" />
        </mxCell>
        <mxCell id="CweIAEKfsdeoZPZ042ms-4" value="" style="sketch=0;points=[[0,0,0],[0.25,0,0],[0.5,0,0],[0.75,0,0],[1,0,0],[0,1,0],[0.25,1,0],[0.5,1,0],[0.75,1,0],[1,1,0],[0,0.25,0],[0,0.5,0],[0,0.75,0],[1,0.25,0],[1,0.5,0],[1,0.75,0]];outlineConnect=0;fontColor=#232F3E;fillColor=#E7157B;strokeColor=#ffffff;dashed=0;verticalLabelPosition=bottom;verticalAlign=top;align=center;html=1;fontSize=12;fontStyle=0;aspect=fixed;shape=mxgraph.aws4.resourceIcon;resIcon=mxgraph.aws4.api_gateway;" vertex="1" parent="CweIAEKfsdeoZPZ042ms-29">
          <mxGeometry x="6" width="78" height="78" as="geometry" />
        </mxCell>
        <mxCell id="CweIAEKfsdeoZPZ042ms-28" value="API Getaway" style="text;html=1;align=center;verticalAlign=middle;resizable=0;points=[];autosize=1;strokeColor=none;fillColor=none;" vertex="1" parent="CweIAEKfsdeoZPZ042ms-29">
          <mxGeometry y="80" width="90" height="30" as="geometry" />
        </mxCell>
        <mxCell id="CweIAEKfsdeoZPZ042ms-30" value="" style="endArrow=none;html=1;rounded=0;exitX=1;exitY=0.5;exitDx=0;exitDy=0;exitPerimeter=0;entryX=0;entryY=0.5;entryDx=0;entryDy=0;" edge="1" parent="1" source="CweIAEKfsdeoZPZ042ms-4" target="CweIAEKfsdeoZPZ042ms-24">
          <mxGeometry width="50" height="50" relative="1" as="geometry">
            <mxPoint x="470" y="320" as="sourcePoint" />
            <mxPoint x="520" y="270" as="targetPoint" />
          </mxGeometry>
        </mxCell>
        <mxCell id="CweIAEKfsdeoZPZ042ms-31" value="GET" style="text;html=1;align=center;verticalAlign=middle;resizable=0;points=[];autosize=1;strokeColor=none;fillColor=none;" vertex="1" parent="1">
          <mxGeometry x="490" y="190" width="50" height="30" as="geometry" />
        </mxCell>
        <mxCell id="CweIAEKfsdeoZPZ042ms-32" value="POST" style="text;html=1;align=center;verticalAlign=middle;resizable=0;points=[];autosize=1;strokeColor=none;fillColor=none;" vertex="1" parent="1">
          <mxGeometry x="485" y="220" width="60" height="30" as="geometry" />
        </mxCell>
      </root>
    </mxGraphModel>
  </diagram>
</mxfile>
